<svg xmlns="http://www.w3.org/2000/svg" viewBox="0 0 269.22 269.18"><g id="Calque_2" data-name="Calque 2"><g id="Calque_1-2" data-name="Calque 1"><path d="M255,129.63c-2.54-42.9-22.4-76.11-59.05-98.71a111.26,111.26,0,0,0-66.29-16.7C84.61,17,50.44,38.46,28.12,78.15a111.39,111.39,0,0,0-13.71,47.31,14.74,14.74,0,0,1-.41,2.45v13.7c.19,1.44.36,2.88.53,4.32.39,3.33.76,6.47,1.35,9.53,7.88,40.37,30.66,70.09,67.69,88.34a111.08,111.08,0,0,0,42.09,11,13.37,13.37,0,0,1,2.33.4h13.63c1.44-.19,2.88-.36,4.32-.53,3.34-.4,6.5-.77,9.58-1.36C193.61,246,222.41,225,241.09,191A111.83,111.83,0,0,0,255,129.63Zm-39,10.84-58.21,54.11A8,8,0,0,1,147,182.85l43.33-40.26H54.86a8,8,0,0,1,0-16H190.25L147,86.34a8,8,0,1,1,10.9-11.72l58.21,54.12A8,8,0,0,1,216.06,140.47Z" style="fill:#f4fdff"/><path d="M269,128.8C266.18,81.08,244.08,44.13,203.32,19A125,125,0,0,0,128.84.25c-50.13,3-88.12,26.93-112.93,71A125.35,125.35,0,0,0,.45,124.38c0,.15-.07.29-.1.43-.07.31-.15.62-.21.93l-.14.68v16.12l.06.46c.21,1.52.39,3,.56,4.56.41,3.44.83,7,1.52,10.58,8.77,44.89,34.08,77.94,75.24,98.22a125,125,0,0,0,47.13,12.38l.23.06.88.21.75.17h16.17l.47-.06c1.52-.21,3.05-.39,4.58-.57,3.44-.41,7-.83,10.57-1.51,42.38-8.15,74.41-31.45,95.2-69.26A125.58,125.58,0,0,0,269,128.8Zm-123,125.85c-1.44.17-2.88.34-4.32.53H128a13.37,13.37,0,0,0-2.33-.4,111.08,111.08,0,0,1-42.09-11c-37-18.25-59.81-48-67.69-88.34-.59-3.06-1-6.2-1.35-9.53-.17-1.44-.34-2.88-.53-4.32v-13.7a14.74,14.74,0,0,0,.41-2.45A111.39,111.39,0,0,1,28.12,78.15C50.44,38.46,84.61,17,129.68,14.22A111.26,111.26,0,0,1,196,30.92c36.65,22.6,56.51,55.81,59.05,98.71A111.83,111.83,0,0,1,241.09,191c-18.68,34-47.48,54.93-85.57,62.25C152.44,253.88,149.28,254.25,145.94,254.65Z" style="fill:#0a184d"/><path d="M216.06,140.47l-58.21,54.11A8,8,0,0,1,147,182.85l43.33-40.26H54.86a8,8,0,0,1,0-16H190.25L147,86.34a8,8,0,1,1,10.9-11.72l58.21,54.12A8,8,0,0,1,216.06,140.47Z" style="fill:#0a184d"/></g></g></svg>