<svg xmlns="http://www.w3.org/2000/svg" viewBox="0 0 282.9 282.85"><g id="Calque_2" data-name="Calque 2"><g id="Calque_1-2" data-name="Calque 1"><path d="M149.32,275.85H133.56a12.86,12.86,0,0,0-2-.43A123.84,123.84,0,0,1,84.41,263.1C43.17,242.78,17.94,210,9.12,164.82c-1-5.11-1.43-10.34-2.12-15.51V133.56a19.8,19.8,0,0,0,.45-2.27c1.3-18.76,6.17-36.59,15.37-52.95,24.76-44,62.53-68,113-71.1A124.6,124.6,0,0,1,210,25.92c40.81,25.16,62.87,62,65.7,109.84a125.18,125.18,0,0,1-15.57,68.69q-31.28,56.88-95.23,69.28C159.74,274.71,154.5,275.16,149.32,275.85Z" style="fill:#4caf4c;stroke:#0a184d;stroke-miterlimit:10;stroke-width:14px"/><path d="M116.71,180.3a20.14,20.14,0,0,1,1.84-2.49Q160,136.7,201.48,95.6c2.19-2.18,4.51-3.87,7.79-3.64a8.32,8.32,0,0,1,6.25,13.32,23.78,23.78,0,0,1-2.33,2.49L123.9,196.24c-5.36,5.31-9.68,5.29-15.11,0L69.8,158a24.46,24.46,0,0,1-2-2.1,8,8,0,0,1,0-10.58,8.33,8.33,0,0,1,10.68-1.86,16.62,16.62,0,0,1,3,2.47q16.32,16,32.61,32C114.82,178.52,115.46,179.11,116.71,180.3Z" style="fill:#0a184d;stroke:#0a184d;stroke-miterlimit:10;stroke-width:7px"/></g></g></svg>