<svg xmlns="http://www.w3.org/2000/svg" xmlns:xlink="http://www.w3.org/1999/xlink" viewBox="0 0 269.22 269.17"><defs><clipPath id="clip-path"><path d="M142,262.17H127a14.61,14.61,0,0,0-1.92-.41,117.46,117.46,0,0,1-44.69-11.69C41.3,230.79,17.38,199.69,9,156.8c-.95-4.86-1.35-9.82-2-14.73V127.12A18.13,18.13,0,0,0,7.42,125C8.66,107.16,13.27,90.24,22,74.71,45.48,32.92,81.3,10.13,129.15,7.23A118.07,118.07,0,0,1,199.48,25c38.7,23.88,59.62,58.82,62.31,104.25A119,119,0,0,1,247,194.41q-29.65,54-90.31,65.75C151.84,261.09,146.88,261.51,142,262.17Z" style="fill:none"/></clipPath></defs><g id="Calque_2" data-name="Calque 2"><g id="Calque_1-2" data-name="Calque 1"><path d="M142.08,262.17h-15a14.28,14.28,0,0,0-1.92-.41,117.65,117.65,0,0,1-44.73-11.69C41.33,230.79,17.39,199.69,9,156.8c-.95-4.86-1.35-9.82-2-14.73V127.12A18.13,18.13,0,0,0,7.42,125C8.67,107.16,13.28,90.24,22,74.71,45.52,32.92,81.36,10.13,129.26,7.23A118.28,118.28,0,0,1,199.65,25C238.38,48.84,259.32,83.78,262,129.21a118.91,118.91,0,0,1-14.77,65.2q-29.68,54-90.4,65.75C152,261.09,147,261.51,142.08,262.17Z" style="fill:#f4fdff;stroke:#0a184d;stroke-miterlimit:10;stroke-width:14px"/><g style="clip-path:url(#clip-path)"><path d="M74.37,144.53c.3,14.67,5.45,27.39,16,37.93a8.77,8.77,0,0,0,4.14,2.2,5.94,5.94,0,0,0,6.5-3.22c1.3-2.52.79-5.12-1.5-7.54C83,156.43,83,132.46,99.45,115.17c2.88-3,3-6.86.21-9.33s-6.6-2.11-9.44.77A53.59,53.59,0,0,0,74.37,144.53Zm32.09-.05a26.77,26.77,0,0,0,7.87,19c2.75,2.8,6.58,3,9.26.58s2.67-6,.17-8.87c-6.11-6.89-6.12-14.53,0-21.35,2.52-2.83,2.48-6.5-.1-8.88s-6.52-2.26-9.27.52A26.71,26.71,0,0,0,106.46,144.48Z" style="fill:#0a184d"/><path d="M255.46,7c3.68,1.65,4.74,4.48,4.73,8.31q-.12,97.48-.05,195c0,5.66-2.24,7.81-8.09,7.81-4,0-8.08-.11-12.11,0s-6.39-1.38-7.93-4.89c-2.39-5.5-5.09-10.87-7.54-16.34-1.74-3.87-4.66-5.64-9-5.57-10.27.15-20.54.29-30.81.3-6.21,0-11.7-1.86-15.69-6.81a14.37,14.37,0,0,1-3.53-9.31c.16-6.79.33-6.59-4.27-12.81-4.05-5.49-2.16-12.46,3.72-16.11,2.08-1.3,4.19-2.57,6.28-3.85l6-3.68-14.8-5.47c-1.26-.46-2.53-.89-3.78-1.36a10.81,10.81,0,0,1-7.14-12.56c.74-3.77,1.51-7.54,2.25-11.32s-.75-6-4.85-6.65c-3.56-.56-7.13-1.09-10.7-1.53-8.51-1-12.56-8.84-8.22-16,7.28-12.09,14.43-24.26,22-36.16,5.45-8.53,7.19-17.45,5.1-27.2-.47-2.14-.72-4.33-1-6.51-.5-3.62,1.51-5.77,4.59-7.28Z" style="fill:#0a184d"/><path d="M42.53,139c.68-4.06,1.18-8.15,2.08-12.16a78.11,78.11,0,0,1,22-39.05,6.6,6.6,0,0,1,9.15-.44c2.68,2.44,2.76,6.23,0,9-9.2,9.17-15.67,19.87-18.48,32.38-5.33,23.74.44,44.75,17.34,62.77,1.7,1.82,3.45,3.56,3.14,6.24A5.86,5.86,0,0,1,73.56,203a6.41,6.41,0,0,1-7-1.67c-9.09-9-16-19.3-19.71-31.34-1.87-6-2.69-12.31-4-18.48-.1-.47-.24-.93-.35-1.39Z" style="fill:#0a184d"/><path d="M74.37,144.53a53.59,53.59,0,0,1,15.85-37.92c2.84-2.88,6.75-3.18,9.44-.77s2.67,6.31-.21,9.33C83,132.46,83,156.43,99.5,173.9c2.29,2.42,2.8,5,1.5,7.54a5.94,5.94,0,0,1-6.5,3.22,8.77,8.77,0,0,1-4.14-2.2C79.82,171.92,74.67,159.2,74.37,144.53Z" style="fill:#0a184d"/><path d="M106.46,144.48a26.71,26.71,0,0,1,7.9-19c2.75-2.78,6.61-3,9.27-.52s2.62,6.05.1,8.88c-6.09,6.82-6.08,14.46,0,21.35,2.5,2.83,2.43,6.52-.17,8.87s-6.51,2.22-9.26-.58A26.77,26.77,0,0,1,106.46,144.48Z" style="fill:#0a184d"/></g></g></g></svg>