<svg xmlns="http://www.w3.org/2000/svg" viewBox="0 0 269.22 269.17"><g id="Calque_2" data-name="Calque 2"><g id="Calque_1-2" data-name="Calque 1"><path d="M142.08,262.17h-15a14.28,14.28,0,0,0-1.92-.41,117.65,117.65,0,0,1-44.73-11.69C41.33,230.79,17.39,199.69,9,156.8c-.95-4.86-1.35-9.82-2-14.73V127.12A18.13,18.13,0,0,0,7.42,125C8.67,107.16,13.28,90.24,22,74.71,45.52,32.92,81.36,10.13,129.26,7.23A118.28,118.28,0,0,1,199.65,25C238.38,48.84,259.32,83.78,262,129.21a118.91,118.91,0,0,1-14.77,65.2q-29.68,54-90.4,65.75C152,261.09,147,261.51,142.08,262.17Z" style="fill:#f4fdff;stroke:#0a184d;stroke-miterlimit:10;stroke-width:14px"/><path d="M58.26,88.64a13.92,13.92,0,0,1,4.43-8.2,13.54,13.54,0,0,1,9.22-3.14h94.51c10.39,0,20.77,0,31.16,0,5.43,0,9.66,2.28,12,7.25a14.21,14.21,0,0,1,1.31,5.88q.12,44.15,0,88.27c0,7.78-5.58,13.13-13.51,13.13H87.11c-5.06,0-10.13-.09-15.2,0-7.13.14-12.54-4.61-13.45-10.81a2.79,2.79,0,0,0-.2-.55ZM70,83.83l-.25.43a12.64,12.64,0,0,1,1.18.85q29.31,26.72,58.6,53.45c3.5,3.19,6.64,3.18,10.15,0L198.18,85.2a12.3,12.3,0,0,1,1.3-.94l-.27-.43ZM120,138.47,69.39,185.09c2.62.67,128.72.52,130.26-.16l-50.39-46.45L144,143.22c-6,5.43-12.78,5.42-18.81,0ZM65.06,88.35c-.71,2.34-.61,90.72,0,92.08l50.15-46.27ZM154,134.16l50.23,46.34c.66-2.14.53-90.54-.17-92Z" style="fill:#0a184d;stroke:#0a184d;stroke-miterlimit:10;stroke-width:4px"/></g></g></svg>