<svg xmlns="http://www.w3.org/2000/svg" viewBox="0 0 269.22 269.17"><g id="Calque_2" data-name="Calque 2"><g id="Calque_1-2" data-name="Calque 1"><path d="M142.08,262.17h-15a14.28,14.28,0,0,0-1.92-.41,117.65,117.65,0,0,1-44.73-11.69C41.33,230.79,17.39,199.69,9,156.8c-.95-4.86-1.35-9.82-2-14.73V127.12A18.13,18.13,0,0,0,7.42,125C8.67,107.16,13.28,90.24,22,74.71,45.52,32.92,81.36,10.13,129.26,7.23A118.28,118.28,0,0,1,199.65,25C238.38,48.84,259.32,83.78,262,129.21a118.91,118.91,0,0,1-14.77,65.2q-29.68,54-90.4,65.75C152,261.09,147,261.51,142.08,262.17Z" style="fill:#f4fdff;stroke:#0a184d;stroke-miterlimit:10;stroke-width:14px"/><path d="M88.91,191.59,125.68,82.53h17.87l36.76,109.06H165l-9.89-30.47H113.44l-9.88,30.47Zm62.18-42.85L134.25,97.32l-16.78,51.42Z" style="fill:#0a184d;stroke:#0a184d;stroke-miterlimit:10;stroke-width:7px"/></g></g></svg>