<svg xmlns="http://www.w3.org/2000/svg" viewBox="0 0 269.22 269.17"><g id="Calque_2" data-name="Calque 2"><g id="Calque_1-2" data-name="Calque 1"><path d="M142.08,262.17h-15a14.28,14.28,0,0,0-1.92-.41,117.65,117.65,0,0,1-44.73-11.69C41.33,230.79,17.39,199.69,9,156.8c-.95-4.86-1.35-9.82-2-14.73V127.12A18.13,18.13,0,0,0,7.42,125C8.67,107.16,13.28,90.24,22,74.71,45.52,32.92,81.36,10.13,129.26,7.23A118.28,118.28,0,0,1,199.65,25C238.38,48.84,259.32,83.78,262,129.21a118.91,118.91,0,0,1-14.77,65.2q-29.68,54-90.4,65.75C152,261.09,147,261.51,142.08,262.17Z" style="fill:#f4fdff;stroke:#0a184d;stroke-miterlimit:10;stroke-width:14px"/><path d="M201,83.21V186a4.75,4.75,0,0,0-.23.73c-1.24,6.68-5.12,11.14-11.46,13.46A34.44,34.44,0,0,1,186,201H83.24a2.37,2.37,0,0,0-.47-.2c-9-1.62-14.57-8.3-14.58-17.41q0-48.84,0-97.67a18.77,18.77,0,0,1,.42-4.24c1.85-8.1,8.55-13.34,17-13.35h80.53c6,0,12,0,18,0a16.87,16.87,0,0,1,15.93,11.54C200.51,80.86,200.73,82.05,201,83.21Zm-77.41,69.9a9.39,9.39,0,0,1,.9-1.26q17-17,34-34a13.65,13.65,0,0,1,2.92-2.34c4.8-2.66,10-1.49,13.62,3l17.16,21.15c.25.3.54.58,1,1,0-.47,0-.68,0-.89q0-27,0-54.09c0-5.81-4-9.65-9.89-9.65H85.92a12.22,12.22,0,0,0-3.07.36C78.53,77.51,76,81,76,85.86v72.38c0,.32,0,.65.06,1.16.48-.39.81-.64,1.13-.91q9.39-8,18.77-16c4.8-4.1,9.87-4.16,14.76-.13C114.92,145.87,119.1,149.35,123.62,153.11Zm11,40.11q24.38,0,48.76,0c5.87,0,9.78-3.89,9.8-9.74q0-14.65,0-29.32a2.92,2.92,0,0,0-.57-1.62c-1.59-2.05-3.25-4-4.88-6.05q-9.41-11.58-18.8-23.16c-.75-.93-1.61-1.73-2.84-1.36a5.42,5.42,0,0,0-2.1,1.41q-18.54,18.51-37,37.07c-2.18,2.18-4,2.28-6.36.34q-7.45-6.17-14.87-12.34c-1.89-1.58-2.79-1.59-4.65,0Q89,158.76,76.83,169.13a2.62,2.62,0,0,0-.8,1.72c-.06,4.19,0,8.39,0,12.58a11.68,11.68,0,0,0,.35,2.95c1.18,4.33,4.69,6.83,9.52,6.84Z" style="fill:#0a184d;stroke:#0a184d;stroke-miterlimit:10;stroke-width:2px"/><path d="M91.15,103.36a18.87,18.87,0,1,1,18.78,18.85A18.92,18.92,0,0,1,91.15,103.36Zm7.86,0a11,11,0,0,0,22,0,11,11,0,1,0-22,0Z" style="fill:#0a184d;stroke:#0a184d;stroke-miterlimit:10;stroke-width:2px"/></g></g></svg>