<svg xmlns="http://www.w3.org/2000/svg" viewBox="0 0 934.86 393.42"><g id="Calque_2" data-name="Calque 2"><g id="Calque_2-2" data-name="Calque 2"><rect x="2" y="2" width="930.86" height="389.42" rx="98.2" style="fill:#202548"/><path d="M834.66,393.42H100.2A100.32,100.32,0,0,1,0,293.21v-193A100.31,100.31,0,0,1,100.2,0H834.66a100.31,100.31,0,0,1,100.2,100.2v193A100.32,100.32,0,0,1,834.66,393.42ZM100.2,4A96.32,96.32,0,0,0,4,100.2v193a96.32,96.32,0,0,0,96.2,96.21H834.66a96.32,96.32,0,0,0,96.2-96.21v-193A96.32,96.32,0,0,0,834.66,4Z" style="fill:#202548"/><g id="Calque_2-3" data-name="Calque 2"><g id="Calque_1-2" data-name="Calque 1-2"><path d="M257.72,216.1c5.1-2.27,10-5,14,3.76.92,1.9,1.76,3.83,2.72,5.94,1.77-.81,3.49-1.54,5.17-2.38a3.27,3.27,0,0,1,3.53,0l15.12,33.09h0a4.43,4.43,0,0,1-5.86-2.18l-12-26.28-4.06,1.86.68,1.49q15.58,34,31.09,68.08a9.33,9.33,0,0,1,.83,3.33c.4,7.17.72,14.35,1.07,21.53,0,.27,0,.53,0,.8a2.33,2.33,0,0,1-1.27,2.47,2.27,2.27,0,0,1-2.7-.6l-2.64-2.49c-4.58-4.37-9.19-8.73-13.75-13.14a8.08,8.08,0,0,1-1.74-2.47q-18-39.5-36.15-78.95c-4-8.73,1-11.64,5.94-13.84" style="fill:#4daf4d"/></g></g><path d="M206.49,142.84A37.84,37.84,0,1,1,244.32,105,37.87,37.87,0,0,1,206.49,142.84Zm0-57.86a20,20,0,1,0,20,20A20.05,20.05,0,0,0,206.49,85Z" style="fill:#fff"/><path d="M116.42,329.34h0a17.79,17.79,0,0,1-8.64-23.65l80.75-173.58,16.14,7.51Z" style="fill:#fff"/><path d="M233,184.71l-21.46-46.33,16.15-7.48,21.09,45.5a5.88,5.88,0,0,1-2.86,7.8l-6.32,2.93A5,5,0,0,1,233,184.71Z" style="fill:#fff"/><path d="M216.26,217c-19.26,0-36.44-5.29-47.31-13.18l10.46-14.41c13.9,10.09,43.52,14.54,71,2.89,20.08-8.52,33.52-23.47,40.18-37.51a21.22,21.22,0,0,1,22.17-11.93h0c-3.19,22.43-21.56,51.48-55.4,65.83A105.59,105.59,0,0,1,216.26,217Z" style="fill:#fff"/><g id="Calque_2-4" data-name="Calque 2"><g id="Calque_1-2-2" data-name="Calque 1-2"><path d="M208.17,133.83h-3.38a3.15,3.15,0,0,0-.42-.09,26.49,26.49,0,0,1-10.11-2.64A28.5,28.5,0,0,1,178.11,110c-.21-1.1-.3-2.22-.45-3.33v-3.38c0-.16.07-.32.1-.48a26.7,26.7,0,0,1,3.29-11.36c5.31-9.43,13.41-14.57,24.23-15.24a26.74,26.74,0,0,1,15.9,4,28.24,28.24,0,0,1,14.09,23.54,26.84,26.84,0,0,1-3.34,14.73,28.45,28.45,0,0,1-20.42,14.86C210.41,133.59,209.28,133.68,208.17,133.83Z" style="fill:#fff"/><path d="M201,119.78a4.42,4.42,0,0,1-3.08-1.43l-8.35-8.19a6.72,6.72,0,0,1-.58-.61,3.81,3.81,0,0,1,0-5,3.86,3.86,0,0,1,4.94-.83l.06,0a5.48,5.48,0,0,1,1,.81c2,2,4,3.9,6,5.86L217.8,93.8a4.14,4.14,0,0,1,3.25-1.38,3.86,3.86,0,0,1,3.66,4,3.88,3.88,0,0,1-.77,2.15l-.05,0a6.59,6.59,0,0,1-.67.73l-19.12,19A4.43,4.43,0,0,1,201,119.78Zm-8.85-12.94h0Z" style="fill:#202548"/></g></g><path d="M368.39,290.82V161.13H328.64V144.39h97.9v16.74H386.8V290.82Z" style="fill:#fff;stroke:#fff;stroke-miterlimit:10;stroke-width:4px"/><path d="M479.89,293.33a42.94,42.94,0,0,1-40.38-25.41q-5.85-12.24-5.85-29.39,0-17.79,6.06-29.92a43.5,43.5,0,0,1,16.84-18.51,47,47,0,0,1,24.37-6.38,35.31,35.31,0,0,1,15.9,3.34A35.73,35.73,0,0,1,508,195.64a35.08,35.08,0,0,1,6.59,11.09v-20.5h16.74V290.82H514V270.74A27.45,27.45,0,0,1,506.56,283a35.51,35.51,0,0,1-12.34,7.74A40.79,40.79,0,0,1,479.89,293.33Zm2.51-15.9q10,0,17.05-5.33A33.54,33.54,0,0,0,510.11,258a50.11,50.11,0,0,0,3.66-19.45q0-17.37-8.26-28.24t-23.74-10.88q-10.26,0-17,5.12a30.64,30.64,0,0,0-10.15,13.91,55,55,0,0,0-3.34,19.67,55.79,55.79,0,0,0,3.34,19.77,31.24,31.24,0,0,0,10.36,14.22Q471.94,277.44,482.4,277.43Z" style="fill:#fff;stroke:#fff;stroke-miterlimit:10;stroke-width:4px"/><path d="M561.89,290.82V141.88h17.57V290.82Z" style="fill:#fff;stroke:#fff;stroke-miterlimit:10;stroke-width:4px"/><path d="M657.7,293.33a49.88,49.88,0,0,1-24.27-6.17,46.2,46.2,0,0,1-18.2-18.41q-6.9-12.24-6.9-30.22t6.9-30.23a46.2,46.2,0,0,1,18.2-18.41,50.8,50.8,0,0,1,48.53,0,46.2,46.2,0,0,1,18.2,18.41q6.9,12.24,6.9,30.23t-6.9,30.22A46.2,46.2,0,0,1,682,287.16,49.87,49.87,0,0,1,657.7,293.33Zm0-15.9q15.67,0,23.74-10.25t8-28.65q0-18.42-8-28.66T657.7,199.62q-15.69,0-23.75,10.25t-8.05,28.66q0,18.41,8.05,28.65T657.7,277.43Z" style="fill:#fff;stroke:#fff;stroke-miterlimit:10;stroke-width:4px"/><path d="M769.82,293.33a45.53,45.53,0,0,1-19.88-4.5,40,40,0,0,1-15.27-12.44,29.92,29.92,0,0,1-5.85-18.2h18.82A15.72,15.72,0,0,0,751.41,269a23,23,0,0,0,9.2,6.38,29.48,29.48,0,0,0,10.67,2.09q10.46,0,16.74-3.76t6.27-11.51q0-6.9-4.6-10.35A32.63,32.63,0,0,0,778,246.58q-7.12-1.77-15.28-3.24a84.35,84.35,0,0,1-15.27-4.19,27.46,27.46,0,0,1-11.71-8.36q-4.61-5.65-4.6-15.69a28.92,28.92,0,0,1,4.18-14.86A32.56,32.56,0,0,1,748,188.42q8.46-4.69,21.23-4.7,15.27,0,24.16,4.91t12.76,11.93A27.91,27.91,0,0,1,810,214.05H792q0-5.22-5.86-9.83T769,199.62q-10.25,0-15.27,4.08a13.19,13.19,0,0,0-5,10.77,10.22,10.22,0,0,0,4.6,9,36.09,36.09,0,0,0,11.82,4.92q7.21,1.78,15.27,3.56a78.08,78.08,0,0,1,15.27,5,30.41,30.41,0,0,1,11.82,9.2q4.6,6,4.6,16a28.47,28.47,0,0,1-4.49,15.48q-4.5,7.13-13.81,11.4T769.82,293.33Z" style="fill:#fff;stroke:#fff;stroke-miterlimit:10;stroke-width:4px"/><line x1="326.16" y1="325.14" x2="482.26" y2="325.14" style="fill:#4daf4d"/><path d="M323.65,330.85h137c6.29,0,12.6.15,18.89,0a2.26,2.26,0,0,1,.26,0,10.47,10.47,0,0,0,8.74-6c.46-1.2.86-2.81,0-3.94a4.34,4.34,0,0,0-3.67-1.46H347.83c-6.29,0-12.6-.15-18.89,0h-.26a10.45,10.45,0,0,0-8.74,6c-.46,1.2-.86,2.81,0,3.94a4.36,4.36,0,0,0,3.67,1.46Z" style="fill:#4eaf4d"/><line x1="347.08" y1="340.72" x2="497.47" y2="340.72" style="fill:#fff"/><path d="M344.57,346.42H476.43c6.08,0,12.17.14,18.25,0H495a10.46,10.46,0,0,0,8.74-6c.46-1.21.86-2.81,0-3.94A4.33,4.33,0,0,0,500,335H368.12c-6.08,0-12.18-.13-18.26,0h-.26a10.46,10.46,0,0,0-8.74,6c-.46,1.21-.86,2.82,0,4a4.35,4.35,0,0,0,3.67,1.45Z" style="fill:#fff"/><rect x="196.05" y="52.69" width="17.8" height="23.87" rx="8.9" style="fill:#fff"/></g></g></svg>