<svg xmlns="http://www.w3.org/2000/svg" viewBox="0 0 707.96 293.47"><g id="Calque_2" data-name="Calque 2"><g id="Calque_2-2" data-name="Calque 2"><g id="Calque_2-3" data-name="Calque 2"><g id="Calque_1-2" data-name="Calque 1-2"><path d="M151.61,163.08c5.1-2.26,10-5,14,3.76.92,1.9,1.76,3.84,2.73,5.95,1.76-.82,3.49-1.55,5.16-2.38a3.27,3.27,0,0,1,3.53,0l15.13,33.1h0a4.46,4.46,0,0,1-5.87-2.18l-12-26.28-4.06,1.86.68,1.48q15.59,34,31.09,68.08a9.38,9.38,0,0,1,.83,3.33c.41,7.17.73,14.35,1.07,21.53,0,.27,0,.54,0,.81a2.33,2.33,0,0,1-1.28,2.46,2.27,2.27,0,0,1-2.7-.59l-2.63-2.49c-4.59-4.38-9.2-8.74-13.76-13.15a8.39,8.39,0,0,1-1.74-2.46q-18-39.51-36.15-79c-4-8.73,1-11.63,6-13.84" style="fill:#4daf4d"/></g></g><path d="M100.37,89.82A37.83,37.83,0,1,1,138.21,52,37.87,37.87,0,0,1,100.37,89.82Zm0-57.86a20,20,0,1,0,20,20A20.05,20.05,0,0,0,100.37,32Z" style="fill:#202548"/><path d="M10.3,276.33h0a17.8,17.8,0,0,1-8.63-23.65L82.41,79.09,98.56,86.6Z" style="fill:#202548"/><path d="M126.89,131.69,105.42,85.36l16.15-7.48,21.09,45.51a5.87,5.87,0,0,1-2.86,7.79l-6.32,2.93A5,5,0,0,1,126.89,131.69Z" style="fill:#202548"/><path d="M110.15,164c-19.26,0-36.45-5.3-47.32-13.19l10.46-14.41c13.91,10.1,43.52,14.54,71,2.89,20.09-8.51,33.52-23.46,40.18-37.5a21.21,21.21,0,0,1,22.17-11.93h0c-3.19,22.42-21.56,51.48-55.4,65.82A105.41,105.41,0,0,1,110.15,164Z" style="fill:#202548"/><rect x="91.47" width="17.8" height="23.87" rx="8.9" style="fill:#202548"/><g id="Calque_2-4" data-name="Calque 2"><g id="Calque_1-2-2" data-name="Calque 1-2"><path d="M102.06,80.81H98.68a3.29,3.29,0,0,0-.43-.09,26.54,26.54,0,0,1-10.11-2.64A28.45,28.45,0,0,1,72,57c-.22-1.1-.31-2.22-.46-3.33V50.31a2.84,2.84,0,0,0,.1-.49,26.57,26.57,0,0,1,3.3-11.35c5.3-9.43,13.4-14.58,24.22-15.24a26.69,26.69,0,0,1,15.91,4c8.75,5.39,13.48,13.29,14.08,23.55a26.84,26.84,0,0,1-3.34,14.73A28.39,28.39,0,0,1,105.4,80.36C104.29,80.57,103.17,80.67,102.06,80.81Z" style="fill:#202548"/><path d="M94.9,66.77a4.43,4.43,0,0,1-3.08-1.44l-8.35-8.18c-.2-.2-.4-.4-.58-.61a3.81,3.81,0,0,1,0-5,3.86,3.86,0,0,1,4.94-.84l.06,0a5.6,5.6,0,0,1,1,.82l6,5.85,16.8-16.66a4.19,4.19,0,0,1,3.26-1.38,3.87,3.87,0,0,1,3.65,4.05,3.77,3.77,0,0,1-.77,2.14l0,.06a9.33,9.33,0,0,1-.68.73L98,65.32A4.4,4.4,0,0,1,94.9,66.77ZM86.06,53.82h0Z" style="fill:#fff"/></g></g><path d="M262.27,237.81V108.11H222.53V91.38h97.9v16.73H280.68v129.7Z" style="fill:#202548;stroke:#202548;stroke-miterlimit:10;stroke-width:4px"/><path d="M373.77,240.32A42.9,42.9,0,0,1,333.4,214.9q-5.86-12.24-5.86-29.39,0-17.77,6.06-29.91a43.59,43.59,0,0,1,16.84-18.52,47,47,0,0,1,24.37-6.38,35.18,35.18,0,0,1,15.9,3.35,35.59,35.59,0,0,1,11.2,8.58,35.08,35.08,0,0,1,6.58,11.08v-20.5h16.74v104.6H407.87V217.72A27.36,27.36,0,0,1,400.44,230a35.51,35.51,0,0,1-12.34,7.74A40.8,40.8,0,0,1,373.77,240.32Zm2.51-15.9q10,0,17.05-5.34A33.58,33.58,0,0,0,404,205a50.26,50.26,0,0,0,3.66-19.45q0-17.35-8.27-28.24t-23.74-10.88q-10.25,0-17,5.13a30.56,30.56,0,0,0-10.14,13.91,54.68,54.68,0,0,0-3.35,19.66,55.57,55.57,0,0,0,3.35,19.77,31.19,31.19,0,0,0,10.35,14.22Q365.82,224.42,376.28,224.42Z" style="fill:#202548;stroke:#202548;stroke-miterlimit:10;stroke-width:4px"/><path d="M455.77,237.81V88.86h17.57v149Z" style="fill:#202548;stroke:#202548;stroke-miterlimit:10;stroke-width:4px"/><path d="M551.58,240.32a49.88,49.88,0,0,1-24.27-6.17,46.27,46.27,0,0,1-18.2-18.41q-6.9-12.24-6.9-30.23t6.9-30.23a46.27,46.27,0,0,1,18.2-18.41,50.8,50.8,0,0,1,48.53,0A46.27,46.27,0,0,1,594,155.28Q601,167.52,601,185.51T594,215.74a46.27,46.27,0,0,1-18.2,18.41A49.87,49.87,0,0,1,551.58,240.32Zm0-15.9q15.69,0,23.74-10.25t8-28.66q0-18.4-8-28.66T551.58,146.6q-15.69,0-23.74,10.25t-8.06,28.66q0,18.41,8.06,28.66T551.58,224.42Z" style="fill:#202548;stroke:#202548;stroke-miterlimit:10;stroke-width:4px"/><path d="M663.7,240.32a45.46,45.46,0,0,1-19.87-4.5,40,40,0,0,1-15.27-12.45,29.84,29.84,0,0,1-5.86-18.2h18.83A15.74,15.74,0,0,0,645.29,216a23.11,23.11,0,0,0,9.21,6.38,29.65,29.65,0,0,0,10.66,2.09q10.47,0,16.74-3.77t6.27-11.5q0-6.9-4.6-10.36a32.55,32.55,0,0,0-11.71-5.23q-7.11-1.77-15.27-3.24a84.12,84.12,0,0,1-15.27-4.18,27.37,27.37,0,0,1-11.72-8.37q-4.61-5.66-4.6-15.69a28.86,28.86,0,0,1,4.18-14.85,32.56,32.56,0,0,1,12.66-11.82q8.48-4.71,21.23-4.71,15.27,0,24.16,4.92T700,147.54A27.94,27.94,0,0,1,703.86,161h-18q0-5.22-5.85-9.83t-17.16-4.6q-10.25,0-15.27,4.08a13.21,13.21,0,0,0-5,10.77,10.23,10.23,0,0,0,4.6,9A36.3,36.3,0,0,0,659,175.36q7.21,1.78,15.27,3.56a78.75,78.75,0,0,1,15.27,5,30.34,30.34,0,0,1,11.82,9.2q4.6,6,4.61,16a28.39,28.39,0,0,1-4.5,15.48q-4.5,7.11-13.81,11.4T663.7,240.32Z" style="fill:#202548;stroke:#202548;stroke-miterlimit:10;stroke-width:4px"/><line x1="220.05" y1="272.13" x2="376.15" y2="272.13" style="fill:#4daf4d"/><path d="M217.53,277.83h137c6.29,0,12.6.15,18.89,0h.26a10.46,10.46,0,0,0,8.74-6c.46-1.21.86-2.82,0-3.95a4.35,4.35,0,0,0-3.67-1.45h-137c-6.29,0-12.6-.15-18.89,0h-.25a10.47,10.47,0,0,0-8.75,6c-.46,1.21-.86,2.81.05,3.94a4.32,4.32,0,0,0,3.66,1.46Z" style="fill:#4eaf4d"/><line x1="240.97" y1="287.71" x2="391.35" y2="287.71" style="fill:#202548"/><path d="M238.45,293.41H370.31c6.08,0,12.18.13,18.26,0h.26a10.45,10.45,0,0,0,8.74-6c.47-1.2.86-2.81,0-3.94a4.35,4.35,0,0,0-3.66-1.46H262c-6.08,0-12.17-.13-18.25,0h-.27a10.47,10.47,0,0,0-8.74,6c-.46,1.2-.86,2.81,0,3.94a4.34,4.34,0,0,0,3.67,1.46Z" style="fill:#202548"/></g></g></svg>