<svg xmlns="http://www.w3.org/2000/svg" viewBox="0 0 269.22 269.17"><g id="Calque_2" data-name="Calque 2"><g id="Calque_1-2" data-name="Calque 1"><path d="M142.08,262.17h-15a14.28,14.28,0,0,0-1.92-.41,117.65,117.65,0,0,1-44.73-11.69C41.33,230.79,17.39,199.69,9,156.8c-.95-4.86-1.35-9.82-2-14.73V127.12A18.13,18.13,0,0,0,7.42,125C8.67,107.16,13.28,90.24,22,74.71,45.52,32.92,81.36,10.13,129.26,7.23A118.28,118.28,0,0,1,199.65,25C238.38,48.84,259.32,83.78,262,129.21a118.91,118.91,0,0,1-14.77,65.2q-29.68,54-90.4,65.75C152,261.09,147,261.51,142.08,262.17Z" style="fill:#f4fdff;stroke:#0a184d;stroke-miterlimit:10;stroke-width:14px"/><path d="M224.88,136.06a30.65,30.65,0,0,1-2.4,3.94c-12.82,16.06-27.68,29.84-45.56,40.13-11.77,6.78-24.33,11.34-38,12.26a75.9,75.9,0,0,1-32.35-5.09c-15.72-6-29.22-15.42-41.56-26.67a171.65,171.65,0,0,1-18.57-19.84,10,10,0,0,1,.06-12.49c12.61-15.65,27.21-29.08,44.71-39.17,14.24-8.22,29.44-13.18,46.12-12.44a81.43,81.43,0,0,1,32.5,8.63c21.53,10.58,38.76,26.3,53.51,45a16.61,16.61,0,0,1,1.59,2.87ZM58.36,132.71a2.69,2.69,0,0,0,0,3.69h0c5.53,5.67,10.83,11.61,16.67,16.94C86.36,163.63,98.91,172,113.5,177a61.57,61.57,0,0,0,26.92,3.22c11.8-1.29,22.52-5.67,32.61-11.72,13.12-7.86,24.34-18,34.51-29.32l1.87-2.08a3.72,3.72,0,0,0,0-5c-2.7-3-5.33-5.88-8.08-8.68-11.72-11.89-24.68-22.09-40.12-28.79A68.51,68.51,0,0,0,137,88.69c-12.91-.61-24.78,3-36.09,8.84C88.31,104.06,77.38,112.88,67.43,123,64.32,126.1,61.38,129.4,58.36,132.71Z" style="fill:#0a184d"/><path d="M167.55,134.71a33.39,33.39,0,1,1-33.17-33.53A33.39,33.39,0,0,1,167.55,134.71Zm-11.13-.07a22.27,22.27,0,1,0-22.28,22.21A22.29,22.29,0,0,0,156.42,134.64Z" style="fill:#0a184d"/></g></g></svg>