<svg xmlns="http://www.w3.org/2000/svg" viewBox="0 0 269.22 269.17"><g id="Calque_2" data-name="Calque 2"><g id="Calque_1-2" data-name="Calque 1"><path d="M142.08,262.17h-15a14.28,14.28,0,0,0-1.92-.41,117.65,117.65,0,0,1-44.73-11.69C41.33,230.79,17.39,199.69,9,156.8c-.95-4.86-1.35-9.82-2-14.73V127.12A18.13,18.13,0,0,0,7.42,125C8.67,107.16,13.28,90.24,22,74.71,45.52,32.92,81.36,10.13,129.26,7.23A118.28,118.28,0,0,1,199.65,25C238.38,48.84,259.32,83.78,262,129.21a118.91,118.91,0,0,1-14.77,65.2q-29.68,54-90.4,65.75C152,261.09,147,261.51,142.08,262.17Z" style="fill:#f4fdff;stroke:#0a184d;stroke-miterlimit:10;stroke-width:14px"/><path d="M73.08,215.56c-2-.71-2.61-2.15-2.61-4.21q0-76.77,0-153.53c0-3.23,1-4.19,4.19-4.19q40.75,0,81.51,0a5.33,5.33,0,0,1,4.06,1.66q14.19,14.26,28.44,28.45a5.36,5.36,0,0,1,1.68,4.06q0,61.74,0,123.49c0,2.1-.62,3.65-2.76,4.29ZM184.27,89.63H158.74c-3.46,0-4.38-.92-4.38-4.38q0-11.68,0-23.37V59.74H76.6V209.4H184.27M160.46,83.47h18.8l-18.8-18.93Z" style="fill:#0a184d;stroke:#0a184d;stroke-miterlimit:10;stroke-width:2px"/><rect x="94.61" y="131.69" width="71.64" height="5.79" rx="1.9" style="fill:#0a184d;stroke:#0a184d;stroke-miterlimit:10;stroke-width:2px"/><rect x="94.57" y="95.77" width="71.68" height="5.72" rx="1.9" style="fill:#0a184d;stroke:#0a184d;stroke-miterlimit:10;stroke-width:2px"/><rect x="94.6" y="167.61" width="71.64" height="5.74" rx="1.9" style="fill:#0a184d;stroke:#0a184d;stroke-miterlimit:10;stroke-width:2px"/><rect x="121.22" y="185.65" width="45.01" height="5.69" rx="1.9" style="fill:#0a184d;stroke:#0a184d;stroke-miterlimit:10;stroke-width:2px"/><rect x="94.6" y="113.72" width="47.67" height="5.78" rx="1.9" style="fill:#0a184d;stroke:#0a184d;stroke-miterlimit:10;stroke-width:2px"/><path d="M133.5,153.48v-1.92a2,2,0,0,1,2-1.9h28.86a1.9,1.9,0,0,1,1.9,1.9v1.92a1.9,1.9,0,0,1-1.9,1.9H135.5A2,2,0,0,1,133.5,153.48Z" style="fill:#0a184d;stroke:#0a184d;stroke-miterlimit:10;stroke-width:2px"/><rect x="94.59" y="77.7" width="34.57" height="5.77" rx="1.9" style="fill:#0a184d;stroke:#0a184d;stroke-miterlimit:10;stroke-width:2px"/><rect x="94.61" y="149.64" width="34.11" height="5.79" rx="1.9" style="fill:#0a184d;stroke:#0a184d;stroke-miterlimit:10;stroke-width:2px"/><rect x="148.51" y="113.73" width="17.74" height="5.79" rx="1.9" style="fill:#0a184d;stroke:#0a184d;stroke-miterlimit:10;stroke-width:2px"/><rect x="94.54" y="185.62" width="22.05" height="5.72" rx="1.9" style="fill:#0a184d;stroke:#0a184d;stroke-miterlimit:10;stroke-width:2px"/><path d="M178,200.58h-6a6.57,6.57,0,0,0-.77-.16,46.94,46.94,0,0,1-17.83-4.66c-15.61-7.7-25.17-20.1-28.51-37.21-.37-1.93-.54-3.91-.8-5.87v-6a6.54,6.54,0,0,0,.17-.86,47.18,47.18,0,0,1,5.82-20c9.37-16.67,23.67-25.76,42.77-26.92A47.2,47.2,0,0,1,200.93,106c15.44,9.53,23.8,23.46,24.87,41.58a47.4,47.4,0,0,1-5.9,26q-11.84,21.54-36.05,26.23C181.91,200.15,179.93,200.32,178,200.58Z" style="fill:#0a184d"/><path d="M178.16,203.45h-6.47l-.3-.07-.36-.08-.08,0a49.7,49.7,0,0,1-18.82-4.94c-16.44-8.1-26.55-21.3-30-39.23-.28-1.43-.45-2.85-.61-4.22-.07-.61-.14-1.21-.22-1.82l0-.38v-6.25l.06-.28c0-.13,0-.25.08-.37a1,1,0,0,0,0-.17,50.11,50.11,0,0,1,6.18-21.2c9.9-17.61,25.08-27.16,45.1-28.37a49.89,49.89,0,0,1,29.75,7.49c16.28,10,25.1,24.79,26.23,43.85a50.31,50.31,0,0,1-6.24,27.56c-8.31,15.1-21.1,24.4-38,27.66-1.43.27-2.85.44-4.22.6l-1.82.22Zm-5.81-5.74h5.43l1.72-.21c1.33-.15,2.58-.3,3.81-.54,15.17-2.91,26.64-11.26,34.08-24.79a44.5,44.5,0,0,0,5.54-24.45c-1-17.08-8.92-30.31-23.51-39.31A44.3,44.3,0,0,0,173,101.76c-17.95,1.09-31.56,9.66-40.45,25.46a44.33,44.33,0,0,0-5.46,18.84,6.05,6.05,0,0,1-.16,1v5.45l.21,1.72c.16,1.33.3,2.58.54,3.79,3.14,16.08,12.21,27.92,27,35.18a44.26,44.26,0,0,0,16.76,4.38A4.62,4.62,0,0,1,172.35,197.71Z" style="fill:#f4fdff"/><path d="M211,150.28a12.54,12.54,0,0,1-1,1.58,64.56,64.56,0,0,1-18.17,16,34.93,34.93,0,0,1-15.15,4.89,30.24,30.24,0,0,1-12.9-2,52.12,52.12,0,0,1-16.58-10.64,69.31,69.31,0,0,1-7.41-7.91,4,4,0,0,1,0-5,63.94,63.94,0,0,1,17.83-15.62c5.68-3.28,11.74-5.26,18.39-5a32.4,32.4,0,0,1,13,3.44c8.59,4.21,15.46,10.49,21.34,17.92a6.73,6.73,0,0,1,.63,1.15Z" style="fill:#0a184d"/><path d="M174.81,175.68a33.68,33.68,0,0,1-12-2.28,54.73,54.73,0,0,1-17.49-11.2,71,71,0,0,1-7.72-8.24,6.88,6.88,0,0,1,0-8.57,66.28,66.28,0,0,1,18.63-16.31c6.74-3.89,13.27-5.63,19.95-5.34a35.55,35.55,0,0,1,14.1,3.73c8.27,4.06,15.58,10.19,22.33,18.72a7.16,7.16,0,0,1,.83,1.41l.43.86,0,2.61-.36.64-.2.35a10.32,10.32,0,0,1-1,1.59,66.91,66.91,0,0,1-19,16.7,37.37,37.37,0,0,1-16.39,5.26C176.21,175.66,175.51,175.68,174.81,175.68Zm0-46.23a31,31,0,0,0-15.66,4.6,60.75,60.75,0,0,0-17,14.94,1.13,1.13,0,0,0,0,1.39,66.23,66.23,0,0,0,7.09,7.58A49.35,49.35,0,0,0,164.83,168a27.65,27.65,0,0,0,11.69,1.85,31.9,31.9,0,0,0,13.91-4.52,61.33,61.33,0,0,0,17.36-15.3,4.89,4.89,0,0,0,.27-.41c-6.18-7.79-12.82-13.37-20.28-17A29.5,29.5,0,0,0,176,129.47C175.56,129.45,175.17,129.45,174.77,129.45Z" style="fill:#f4fdff"/><path d="M188.13,149.75a13.32,13.32,0,1,1-13.23-13.38A13.33,13.33,0,0,1,188.13,149.75Z" style="fill:#0a184d"/><path d="M174.87,165.88h-.18a16.19,16.19,0,0,1-11.2-27.76,16,16,0,0,1,11.26-4.62h.18a16.19,16.19,0,0,1,11.2,27.76A16,16,0,0,1,174.87,165.88Zm-.12-26.64a10.26,10.26,0,0,0-7.24,3,10.45,10.45,0,0,0,7.24,17.93,10.26,10.26,0,0,0,7.36-3,10.48,10.48,0,0,0,3.15-7.45h0a10.49,10.49,0,0,0-10.4-10.48Z" style="fill:#f4fdff"/></g></g></svg>