<svg xmlns="http://www.w3.org/2000/svg" viewBox="0 0 269.22 269.17"><g id="Calque_2" data-name="Calque 2"><g id="Calque_1-2" data-name="Calque 1"><path d="M142.08,262.17h-15a14.28,14.28,0,0,0-1.92-.41,117.65,117.65,0,0,1-44.73-11.69C41.33,230.79,17.39,199.69,9,156.8c-.95-4.86-1.35-9.82-2-14.73V127.12A18.13,18.13,0,0,0,7.42,125C8.67,107.16,13.28,90.24,22,74.71,45.52,32.92,81.36,10.13,129.26,7.23A118.28,118.28,0,0,1,199.65,25C238.38,48.84,259.32,83.78,262,129.21a118.91,118.91,0,0,1-14.77,65.2q-29.68,54-90.4,65.75C152,261.09,147,261.51,142.08,262.17Z" style="fill:#f4fdff;stroke:#0a184d;stroke-miterlimit:10;stroke-width:14px"/><path d="M198.22,189q-9.22-9.25-18.47-18.48c-1.75-1.74-3.52-3.46-5.35-5.26,20-25.36,16.13-61.1-6.7-81.54a59.84,59.84,0,0,0-79.46.06c-21.92,19.4-26,53.58-9.35,77.73,8.45,12.23,19.87,20.43,34.29,24,19,4.67,36.4.83,52.18-11.1,1,1.06,1.91,2.1,2.89,3.08q10.47,10.51,21,21A6.45,6.45,0,0,0,200,196.55C201.16,194,200.59,191.35,198.22,189Zm-70.34-14.82a46.19,46.19,0,1,1,46.29-46A46,46,0,0,1,127.88,174.16Z" style="fill:#0a184d"/><path d="M147.64,121.38c-3.5-.07-7,0-10.51,0H134.6v-1.71c0-3.86,0-7.72,0-11.59a6.05,6.05,0,0,0-5-6.29c-4.67-.88-8.06,1.81-8.15,6.57-.06,3.76,0,7.52,0,11.28v1.74c-2,0-3.72,0-5.47,0-3,0-6.08-.05-9.1.21a5.6,5.6,0,0,0-5,4.75c-1,4.8,1.84,8.23,6.76,8.25,4.21,0,8.42,0,12.75,0,0,.5.06.75.06,1,0,4,0,8,0,12,.07,4.18,2.65,6.74,6.64,6.73s6.53-2.61,6.56-6.79c0-2.88,0-5.77,0-8.65v-4.35c4.58,0,9,0,13.32,0a6.07,6.07,0,0,0,6.16-4.44C155.44,125.37,152.61,121.47,147.64,121.38Z" style="fill:#0a184d"/><path d="M128,154.37c4,0,6.53-2.61,6.56-6.79,0-2.88,0-5.77,0-8.65v-4.35c4.58,0,9,0,13.32,0a6.07,6.07,0,0,0,6.16-4.44c1.36-4.76-1.47-8.66-6.44-8.75-3.5-.07-7,0-10.51,0H134.6v-1.71c0-3.86,0-7.72,0-11.59a6.05,6.05,0,0,0-5-6.29c-4.67-.88-8.06,1.81-8.15,6.57-.06,3.76,0,7.52,0,11.28v1.74c-2,0-3.72,0-5.47,0-3,0-6.08-.05-9.1.21a5.6,5.6,0,0,0-5,4.75c-1,4.8,1.84,8.23,6.76,8.25,4.21,0,8.42,0,12.75,0,0,.5.06.75.06,1,0,4,0,8,0,12C121.46,151.82,124,154.38,128,154.37Z" style="fill:#0a184d;stroke:#0a184d;stroke-linecap:round;stroke-linejoin:round;stroke-width:0px"/></g></g></svg>