<svg xmlns="http://www.w3.org/2000/svg" viewBox="0 0 269.22 269.17"><g id="Calque_2" data-name="Calque 2"><g id="Calque_1-2" data-name="Calque 1"><path d="M142.08,262.17h-15a14.28,14.28,0,0,0-1.92-.41,117.65,117.65,0,0,1-44.73-11.69C41.33,230.79,17.39,199.69,9,156.8c-.95-4.86-1.35-9.82-2-14.73V127.12A18.13,18.13,0,0,0,7.42,125C8.67,107.16,13.28,90.24,22,74.71,45.52,32.92,81.36,10.13,129.26,7.23A118.28,118.28,0,0,1,199.65,25C238.38,48.84,259.32,83.78,262,129.21a118.91,118.91,0,0,1-14.77,65.2q-29.68,54-90.4,65.75C152,261.09,147,261.51,142.08,262.17Z" style="fill:#f4fdff;stroke:#0a184d;stroke-miterlimit:10;stroke-width:14px"/><path d="M162.81,171.74A57.93,57.93,0,0,1,85.38,85.82c20.47-21,53.74-23.06,77.13-4.71A57.89,57.89,0,0,1,172,162.54c.37.39.74.8,1.13,1.19q12.52,12.53,25.05,25a7,7,0,0,1,2.41,5.16A6.24,6.24,0,0,1,197,199.8a6.32,6.32,0,0,1-7-.61,12.54,12.54,0,0,1-1.47-1.36Q176.15,185.44,163.75,173A11.76,11.76,0,0,1,162.81,171.74Zm-36.16-.45a44.78,44.78,0,1,0-44.86-44.62A44.77,44.77,0,0,0,126.65,171.29Z" style="fill:#0a184d"/><path d="M126.56,120c7.73,0,15.46,0,23.18,0a6.44,6.44,0,0,1,6.19,4.5,6.18,6.18,0,0,1-2.34,7.24A9.37,9.37,0,0,1,149,133c-10.1.11-20.19.06-30.29.06-5.15,0-10.3,0-15.45,0a6.36,6.36,0,0,1-6.07-4.64,6.15,6.15,0,0,1,2.38-7.1A9.18,9.18,0,0,1,104,120c7.52-.13,15-.06,22.56-.06Z" style="fill:#0a184d"/></g></g></svg>