<svg xmlns="http://www.w3.org/2000/svg" viewBox="0 0 425.2 165.15"><g id="Calque_2" data-name="Calque 2"><g id="Calque_2-2" data-name="Calque 2"><g id="Calque_2-3" data-name="Calque 2"><g id="Calque_1-2" data-name="Calque 1-2"><path d="M77.65,77.12c2.87-1.28,5.63-2.79,7.87,2.12C86,80.3,93.26,96,93.8,97.21c1-.46,2-.87,2.91-1.34a1.84,1.84,0,0,1,2,0l8.51,18.62h0a2.48,2.48,0,0,1-3.29-1.23L97.15,98.46l-2.29,1.05.38.83q8.78,19.14,17.5,38.3a5.3,5.3,0,0,1,.46,1.87c.23,4,1,8.64,1.17,12.68,0,.15,0,.3,0,.45a1.31,1.31,0,0,1-.71,1.39,1.27,1.27,0,0,1-1.52-.34l-1.48-1.4c-2.59-2.46-5.74-5.47-8.3-7.95a4.5,4.5,0,0,1-1-1.39c-6.77-14.81-20.3-44.25-27.09-59-2.25-4.92.55-6.55,3.34-7.79Z" style="fill:#4daf4d"/></g></g><path d="M65.83,22.88a2.07,2.07,0,0,0-.82-.56,11,11,0,0,1,1.38,2.24v-.12A2.14,2.14,0,0,0,65.83,22.88Z" style="fill:#202548"/><path d="M88,54.21A30.12,30.12,0,0,1,72.54,68.68c-10,4.26-20.81,2.94-26.45-.54l8.23-17.69c.6,0,1.21.08,1.82.08a19.83,19.83,0,0,0,3.29-.26h0l7.12,15.38A2.79,2.79,0,0,0,70.27,67l3.55-1.65A3.29,3.29,0,0,0,75.43,61L68.69,46.43A21.27,21.27,0,0,0,61.15,8.57V5a5,5,0,0,0-1.47-3.54A5,5,0,0,0,56.14,0a5,5,0,0,0-5,5V8.57a21.27,21.27,0,0,0-6.37,38.66L.62,142.15a6.69,6.69,0,0,0,2.51,8.45c3.94,2.26.7,4.09,2.34,4.86L43.18,74.38a33.84,33.84,0,0,0,16.23,3.83A40.46,40.46,0,0,0,75.21,75,37.71,37.71,0,0,0,90.29,63.48a30.32,30.32,0,0,0,6.23-13.87A8.18,8.18,0,0,0,88,54.21ZM46.32,29a2.19,2.19,0,0,1,2.78-.47l0,0a2.76,2.76,0,0,1,.56.45l3.36,3.3L62.5,23a2.36,2.36,0,0,1,1.84-.78,1.92,1.92,0,0,1,.67.15,2.07,2.07,0,0,1,.82.56,2.14,2.14,0,0,1,.56,1.56v.12h0A2.17,2.17,0,0,1,66,25.65l0,0a3.78,3.78,0,0,1-.39.41L54.8,36.75a2.26,2.26,0,0,1-3.47,0l-4.69-4.6a3.51,3.51,0,0,1-.33-.34A2.14,2.14,0,0,1,46.32,29Z" style="fill:#202548"/><g id="Calque_2-4" data-name="Calque 2"><g id="Calque_1-2-2" data-name="Calque 1-2"><path d="M66.39,24.44v.12h0A2.17,2.17,0,0,1,66,25.65l0,0a3.78,3.78,0,0,1-.39.41L54.8,36.75a2.26,2.26,0,0,1-3.47,0l-4.69-4.6a3.51,3.51,0,0,1-.33-.34,2.14,2.14,0,0,1,0-2.8,2.19,2.19,0,0,1,2.78-.47l0,0a2.76,2.76,0,0,1,.56.45l3.36,3.3L62.5,23a2.36,2.36,0,0,1,1.84-.78,1.92,1.92,0,0,1,.67.15,2.07,2.07,0,0,1,.82.56A2.14,2.14,0,0,1,66.39,24.44Z" style="fill:#202548"/><path d="M65.83,22.88a2.07,2.07,0,0,0-.82-.56,1.92,1.92,0,0,0-.67-.15A2.36,2.36,0,0,0,62.5,23l-9.45,9.37L49.69,29a2.76,2.76,0,0,0-.56-.45l0,0a2.19,2.19,0,0,0-2.78.47,2.14,2.14,0,0,0,0,2.8,3.51,3.51,0,0,0,.33.34l4.69,4.6a2.26,2.26,0,0,0,3.47,0L65.55,26.09a3.78,3.78,0,0,0,.39-.41l0,0a2.17,2.17,0,0,0,.43-1.08h0v-.12A2.14,2.14,0,0,0,65.83,22.88Z" style="fill:#fff"/></g></g><polygon points="186.73 37.94 186.73 50.57 162.15 50.57 162.15 130.79 148.48 130.79 148.48 50.57 123.9 50.57 123.9 37.94 186.73 37.94" style="fill:#202548"/><path d="M238.93,63.82v9A26.48,26.48,0,0,0,236.85,70a22.23,22.23,0,0,0-17.62-7.77,30.28,30.28,0,0,0-15.65,4.1,28.09,28.09,0,0,0-10.86,11.92c-2.57,5.14-3.87,11.54-3.87,19A43.23,43.23,0,0,0,192.58,116a27.74,27.74,0,0,0,26,16.37,26.5,26.5,0,0,0,9.26-1.69,23.19,23.19,0,0,0,8-5,18.46,18.46,0,0,0,2.66-3.2v8.37h13v-67Zm-18.79,56.41A16.29,16.29,0,0,1,210,117.17a18.33,18.33,0,0,1-6-8.3,33.35,33.35,0,0,1-2-11.82,32.81,32.81,0,0,1,2-11.76,17.92,17.92,0,0,1,5.89-8.1,16,16,0,0,1,9.86-2.94c6.06,0,10.57,2.06,13.77,6.28s4.89,9.91,4.89,16.78a29.92,29.92,0,0,1-2.18,11.59,19.81,19.81,0,0,1-6.23,8.27A15.91,15.91,0,0,1,220.14,120.23Z" style="fill:#202548"/><rect x="268.17" y="36.38" width="13.15" height="94.41" style="fill:#202548"/><path d="M355.83,78.05a29.89,29.89,0,0,0-11.71-11.83,32.6,32.6,0,0,0-31.11,0,29.86,29.86,0,0,0-11.7,11.83c-2.93,5.19-4.42,11.67-4.42,19.26s1.49,14.06,4.42,19.26A29.84,29.84,0,0,0,313,128.39a32.53,32.53,0,0,0,31.11,0,29.79,29.79,0,0,0,11.71-11.82c2.93-5.2,4.41-11.68,4.41-19.26S358.76,83.24,355.83,78.05Zm-27.27,42.18c-6.15,0-10.66-1.93-13.78-5.9s-4.74-9.73-4.74-17,1.59-13,4.74-17,7.63-5.91,13.78-5.91,10.67,1.93,13.79,5.91,4.74,9.73,4.74,17-1.59,13-4.74,17S334.72,120.23,328.56,120.23Z" style="fill:#202548"/><path d="M425.2,111.92a18.79,18.79,0,0,1-3,10.19,20.5,20.5,0,0,1-9,7.48c-4,1.83-9.12,2.76-15.29,2.76a29.37,29.37,0,0,1-12.79-2.9,25.88,25.88,0,0,1-9.87-8,19.66,19.66,0,0,1-3.84-11.93v-1.14h13.92v1.14a8.59,8.59,0,0,0,2.05,5.91,13.21,13.21,0,0,0,5.24,3.63,17.24,17.24,0,0,0,6.19,1.22c4.09,0,7.37-.73,9.77-2.17a6.6,6.6,0,0,0,3.33-6.14,6.35,6.35,0,0,0-2.4-5.48,19,19,0,0,0-6.83-3c-2.91-.72-6.06-1.39-9.37-2a53.85,53.85,0,0,1-9.66-2.65,18.3,18.3,0,0,1-7.72-5.52c-2.06-2.53-3.1-6-3.1-10.42a19.06,19.06,0,0,1,2.74-9.77,21.42,21.42,0,0,1,8.26-7.73c3.65-2,8.26-3,13.69-3,6.46,0,11.67,1.06,15.49,3.18a20.5,20.5,0,0,1,8.35,7.82,18.49,18.49,0,0,1,2.53,8.89v1.15H410.49V82.16c0-1.77-1.07-3.51-3.19-5.17s-5.52-2.61-9.9-2.61c-3.94,0-6.87.76-8.72,2.27A7,7,0,0,0,386,82.43a5.21,5.21,0,0,0,2.35,4.62,21.36,21.36,0,0,0,6.94,2.87c3,.73,6.15,1.48,9.42,2.2a49.79,49.79,0,0,1,9.67,3.17,20,20,0,0,1,7.74,6C424.16,104,425.2,107.55,425.2,111.92Z" style="fill:#202548"/><line x1="127.41" y1="151.97" x2="215.22" y2="151.97" style="fill:#4daf4d"/><path d="M218.78,151.8a6,6,0,0,1-5,3.42h-.15c-3.54.08-7.09,0-10.63,0H126a2.49,2.49,0,0,1-2.1-.83,2.33,2.33,0,0,1,0-2.25,6,6,0,0,1,5-3.43H129c3.54-.08,7.09,0,10.63,0h77a2.47,2.47,0,0,1,2.09.83A2.33,2.33,0,0,1,218.78,151.8Z" style="fill:#4daf4d"/><line x1="139.17" y1="161.86" x2="223.77" y2="161.86" style="fill:none"/><path d="M227.33,161.68a6,6,0,0,1-5,3.43h-.13c-3.43.08-6.86,0-10.29,0H137.74a2.46,2.46,0,0,1-2.09-.83,2.31,2.31,0,0,1,0-2.25,6,6,0,0,1,5-3.43h.14c3.43-.08,6.86,0,10.28,0h74.18a2.49,2.49,0,0,1,2.1.83A2.33,2.33,0,0,1,227.33,161.68Z" style="fill:#202548"/></g></g></svg>