<svg xmlns="http://www.w3.org/2000/svg" viewBox="0 0 425.2 258.04"><g id="Calque_2" data-name="Calque 2"><g id="Calque_2-2" data-name="Calque 2"><path d="M135.15,257.89a128.53,128.53,0,0,0,80.63-33.45q4.53-4.12,8.66-8.66a128.53,128.53,0,0,0,33.45-80.64H245.64a116.35,116.35,0,0,1-29.87,72,122,122,0,0,1-8.66,8.66,116.35,116.35,0,0,1-72,29.87c-2,.1-4.07.16-6.13.16s-4.09-.06-6.12-.16a116.38,116.38,0,0,1-72-29.87L59.67,207a104.06,104.06,0,0,0,63.23,26.24V221a91.85,91.85,0,0,1-54.56-22.64,93.14,93.14,0,0,1-8.66-8.66A91.81,91.81,0,0,1,37,135.14q-.21-3-.21-6.12T37,122.9A91.78,91.78,0,0,1,59.68,68.34a90.75,90.75,0,0,1,8.66-8.66A91.86,91.86,0,0,1,122.9,37q3-.2,6.12-.2t6.13.2a91.86,91.86,0,0,1,54.56,22.65L181,68.43a79.48,79.48,0,0,0-45.81-19c-2-.16-4.07-.26-6.13-.26s-4.1.1-6.12.26a79.48,79.48,0,0,0-45.81,19,78.68,78.68,0,0,0-8.66,8.66,79.48,79.48,0,0,0-19,45.81c-.16,2-.26,4.06-.26,6.12s.1,4.1.26,6.12a79.48,79.48,0,0,0,19,45.82l8.67-8.68a67.32,67.32,0,0,1-15.4-37.14q-.29-3-.29-6.12t.29-6.12A67.35,67.35,0,0,1,77.1,85.76a68.12,68.12,0,0,1,8.66-8.66A67.28,67.28,0,0,1,122.9,61.7V74.09A55,55,0,0,0,94.53,85.87l8.71,8.71a43,43,0,0,1,51.56,0L146,103.43a30.52,30.52,0,0,0-10.81-4.5,31.06,31.06,0,0,0-12.25,0,30.44,30.44,0,0,0-10.81,4.5,30.92,30.92,0,0,0-8.66,8.66,30.44,30.44,0,0,0-4.5,10.81H86.43a42.85,42.85,0,0,1,8.15-19.66l-8.71-8.71A55,55,0,0,0,74.09,122.9a53.68,53.68,0,0,0,0,12.24,55,55,0,0,0,11.78,28.38,55.84,55.84,0,0,0,8.66,8.66A55.05,55.05,0,0,0,122.9,184a55.34,55.34,0,0,0,12.25,0,55.05,55.05,0,0,0,28.37-11.78l-8.72-8.72a43,43,0,0,1-51.56,0,43.33,43.33,0,0,1-8.66-8.66,42.81,42.81,0,0,1-8.15-19.66h12.5a30.49,30.49,0,0,0,4.5,10.82,30.88,30.88,0,0,0,8.66,8.65,30.44,30.44,0,0,0,10.81,4.5,31.06,31.06,0,0,0,12.25,0,30.52,30.52,0,0,0,10.81-4.5,30.7,30.7,0,0,0,13.15-19.47h-12.7a18.87,18.87,0,0,1-.76,1.85,18.49,18.49,0,0,1-8.66,8.65,17.43,17.43,0,0,1-1.84.77,18.07,18.07,0,0,1-12.25,0,16.59,16.59,0,0,1-1.84-.77A18.51,18.51,0,0,1,112.4,137a17.78,17.78,0,0,1-.77-1.84,18.2,18.2,0,0,1,0-12.24,18.75,18.75,0,0,1,.77-1.84,18.56,18.56,0,0,1,8.66-8.66,16.59,16.59,0,0,1,1.84-.77,18.23,18.23,0,0,1,12.25,0,17.43,17.43,0,0,1,1.84.77,18.39,18.39,0,0,1,9.42,10.5h12.7a30.61,30.61,0,0,0-4.49-10.81l8.84-8.85a43,43,0,0,1,0,51.56l8.72,8.72A55.08,55.08,0,0,0,184,135.14a55.25,55.25,0,0,0,0-12.24,55.05,55.05,0,0,0-11.78-28.37,55.84,55.84,0,0,0-8.66-8.66,55,55,0,0,0-28.37-11.78V61.7a67.25,67.25,0,0,1,37.13,15.4,68.12,68.12,0,0,1,8.66,8.66,67.36,67.36,0,0,1,15.41,37.14c.18,2,.29,4.06.29,6.12s-.11,4.11-.29,6.12a67.33,67.33,0,0,1-15.41,37.14,68.12,68.12,0,0,1-8.66,8.66,67.33,67.33,0,0,1-37.13,15.41c-2,.18-4.06.29-6.13.29s-4.1-.11-6.12-.29a67.36,67.36,0,0,1-37.14-15.41l-8.67,8.68a79.55,79.55,0,0,0,45.81,19c2,.15,4.06.25,6.12.25s4.1-.1,6.13-.25a79.55,79.55,0,0,0,45.81-19,82.33,82.33,0,0,0,8.66-8.66,79.55,79.55,0,0,0,19-45.82c.15-2,.25-4.06.25-6.12s-.1-4.1-.25-6.12a79.55,79.55,0,0,0-19-45.81l8.75-8.75A91.82,91.82,0,0,1,221,122.9c.13,2,.21,4.06.21,6.12s-.08,4.1-.21,6.12a91.87,91.87,0,0,1-22.64,54.57,95.65,95.65,0,0,1-8.66,8.66A91.85,91.85,0,0,1,135.15,221v12.27A104,104,0,0,0,198.38,207a107.22,107.22,0,0,0,8.66-8.66,104,104,0,0,0,26.24-63.24q.18-3,.18-6.12c0-2.05-.06-4.1-.18-6.12a104.6,104.6,0,0,0-98.13-98.14V12.41a116.34,116.34,0,0,1,72,29.86,122,122,0,0,1,8.66,8.66,116.38,116.38,0,0,1,29.87,72h12.25a128.53,128.53,0,0,0-33.45-80.64q-4.12-4.53-8.66-8.66A128.53,128.53,0,0,0,135.15.15c-2-.1-4.08-.15-6.13-.15s-4.09.05-6.12.15A128.53,128.53,0,0,0,42.26,33.6q-4.53,4.13-8.65,8.66A128.48,128.48,0,0,0,.15,122.9Q0,125.95,0,129c0,2,.05,4.1.15,6.12A128.53,128.53,0,0,0,33.6,215.78q4.13,4.53,8.66,8.66a128.53,128.53,0,0,0,80.64,33.45q3,.15,6.12.15C131.07,258,133.12,258,135.15,257.89Zm-92.88-207a122,122,0,0,1,8.66-8.66,116.37,116.37,0,0,1,72-29.86V24.76A104,104,0,0,0,59.67,51,101.1,101.1,0,0,0,51,59.67,104,104,0,0,0,24.76,122.9H12.41A116.37,116.37,0,0,1,42.27,50.93ZM12.41,135.14H24.76A104,104,0,0,0,51,198.38l-8.74,8.73A116.34,116.34,0,0,1,12.41,135.14Z" style="fill:#0a184d"/><path d="M238,126.55l0,2c-.88,38.53-19.44,62.9-23.14,67.39-.6.72-1.17,1.45-1.75,2.19-27.63,35.46-73,39.28-83.06,39.67l.41-25.26-2.14.12c-.32,0-30.73,1.47-57.15-23.41l14-15c5.14,4.54,22.81,18.46,45.32,18.46,13.13,0,27.91-4.74,42.81-18.82l1.49-1.42-17.32-17.14c3.59-3.59,11.68-13.35,9.74-26.76l-.24-1.71H138.85a9.84,9.84,0,1,0,0,4h24.52c1,13.56-10,22.8-10.13,22.89l-1.71,1.41L169,172.38c-17.36,15.66-36.33,20.18-56.4,13.41A74.26,74.26,0,0,1,86.43,170L85,168.57,65.56,189.35l1.4,1.37c24.25,23.85,51.61,25.87,59.42,25.94L126,241.79l2,0H128c2.4,0,56.47-.54,88.2-41.27.55-.71,1.11-1.41,1.67-2.1,3.8-4.59,22.51-29.15,24-67.86l52.26-.07.73-4Z" style="fill:#ff8375"/><path d="M415.46,44c1.93,1.26,4.09,2.15,5.7,3.92,3.77,4.13,4.65,8.91,3.66,14.29q-8.52,46.53-16.95,93.06-6.72,36.93-13.43,73.84c-.68,3.7-1.92,7.08-4.8,9.69-4,3.58-8.56,4.57-13.74,3.63Q344,236.56,312,230.77c-6.73-1.23-13.47-2.41-20.2-3.69a14.77,14.77,0,0,1-12.48-13.79,18.71,18.71,0,0,1,.42-4.9q15.19-83.55,30.37-167.1c1.45-8,7-12.88,13.61-13.45.31,0,.68,0,.81-.41Zm-6.92,4.84c-.45-.1-.89-.23-1.34-.32L327.4,34c-.46-.09-.91-.17-1.37-.22a8.66,8.66,0,0,0-9.53,6.49c-.63,2.41-.86,4.93-1.51,7.34-.49,1.83.16,2.26,1.84,2.56q45.07,8.13,90.11,16.36c.64.12,1.29.2,1.94.29,2.51.48,5,.92,7.53,1.46.94.2,1.28-.07,1.43-1,.4-2.53,1-5,1.32-7.55.71-5.34-2.23-9.36-7.52-10.4C410.62,49.12,409.58,49,408.54,48.83ZM374.47,236c1,.21,2,.46,3.08.63,5.32.89,9.59-1.83,10.68-7.1,1.32-6.36,2.36-12.78,3.56-19.16.17-.91,0-1.3-1-1.44-2.53-.38-5-.86-7.56-1.3-.71-.15-1.41-.31-2.12-.44l-55-10c-2.79-.51-3.35-1.12-3.57-3.79,1.25-2.23,1.94-2.54,4.68-2l43.66,7.94c4.46.81,8.94,1.59,13.41,2.38,2.19.42,4.42.71,6.57,1.3,1.83.51,2.27-.16,2.58-1.85q11.28-62.33,22.65-124.64a6.71,6.71,0,0,1,.15-.78c.33-1,.06-1.53-1.1-1.69-2.47-.35-4.93-.83-7.39-1.26-.64-.14-1.28-.29-1.92-.41q-45.06-8.2-90.11-16.45c-1.73-.31-2.29,0-2.62,1.77Q301.89,120.06,290.5,182.4a5.12,5.12,0,0,1-.15.78c-.45,1.23.13,1.57,1.26,1.73,2.09.29,22.2,4.08,24.28,4.38s3.36,1.33,3.46,3.54c-1.12,2.38-1.88,2.78-4.49,2.32-2.07-.37-22.22-4-24.26-4.45-1.29-.3-1.67.08-1.89,1.33-1,5.83-2.1,11.65-3.15,17.48-1.21,6.72,1.59,10.7,8.35,11.94l78.41,14.27C373,235.85,373.75,235.93,374.47,236Z" style="fill:#050f2d"/><path d="M384.34,201.7c-4.47-.79-8.95-1.57-13.41-2.38l-43.66-7.94c-2.74-.5-3.43-.19-4.68,2l-3.24-.58c-.1-2.21-1.34-3.25-3.46-3.54s-22.19-4.09-24.28-4.38c-1.13-.16-1.71-.5-1.26-1.73a5.12,5.12,0,0,0,.15-.78Q301.84,120,313.15,57.69c.33-1.8.89-2.08,2.62-1.77q45,8.3,90.11,16.45c.64.12,1.28.27,1.92.41Z" style="fill:#fff"/><path d="M319.35,192.83l3.24.58c.22,2.68.78,3.29,3.57,3.8l55,10c.71.13,1.41.29,2.12.44-1.22,6.7-2.48,13.39-3.63,20.1a14.42,14.42,0,0,1-3.37,6.52c-.52.66-1.52.83-1.78,1.75-.72-.1-1.44-.18-2.15-.31l-78.41-14.27c-6.76-1.24-9.56-5.22-8.35-11.94,1.05-5.83,2.16-11.65,3.15-17.48.22-1.25.6-1.63,1.89-1.33,2,.49,22.19,4.08,24.26,4.45C317.47,195.61,318.23,195.21,319.35,192.83Zm26.12,22.93a7.73,7.73,0,1,0-9,6.24A7.77,7.77,0,0,0,345.47,215.76Z" style="fill:#0a184d;stroke:#0a184d;stroke-miterlimit:10"/><path d="M408.88,66.81c-.65-.09-1.3-.17-1.94-.29q-45.06-8.19-90.11-16.36c-1.68-.3-2.33-.73-1.84-2.56.65-2.41.88-4.93,1.51-7.34A8.66,8.66,0,0,1,326,33.77c.46,0,.91.13,1.37.22l79.8,14.52c.45.09.89.22,1.34.32a2.28,2.28,0,0,0,.15.76,12.55,12.55,0,0,1,1.59,9.73C409.74,61.8,409.34,64.31,408.88,66.81ZM373,54.33c1.87.34,3.74.73,5.61,1a3,3,0,1,0,1.06-5.8q-5.6-1.11-11.22-2a3,3,0,1,0-1.06,5.8C369.27,53.7,371.15,54,373,54.33Zm-17.53-3.21a2.94,2.94,0,1,0-2.25-3.55A2.94,2.94,0,0,0,355.49,51.12Z" style="fill:#0a184d;stroke:#0a184d;stroke-miterlimit:10"/><path d="M383.67,201.58,407.13,72.66c2.65.46,5.29,1,7.95,1.36,1.25.18,1.55.69,1.21,1.71a5.12,5.12,0,0,0-.15.78q-11.34,62.31-22.65,124.64c-.31,1.69-.77,2.35-2.74,1.82C388.43,202.35,386,202,383.67,201.58Z" style="fill:#d8d8d8"/><path d="M373.11,236.31c.27-.94,1.37-1.1,1.93-1.76,1.68-2,3.17-4,3.62-6.61,1.16-6.82,2.44-13.63,3.68-20.44,2.78.48,5.55,1,8.34,1.43,1.07.17,1.27.57,1.1,1.49-1.22,6.49-2.26,13-3.62,19.49C387,235.28,382.37,238,376.5,237,375.37,236.81,374.24,236.54,373.11,236.31Z" style="fill:#050f2d;stroke:#050f2d;stroke-miterlimit:10"/><path d="M408,66.65c.46-2.5.85-5,1.39-7.5a11.79,11.79,0,0,0-1.93-9.79,2.23,2.23,0,0,1-.17-.76c1.14.18,2.29.33,3.42.55,5.84,1.15,9.15,5.23,8.46,10.57-.32,2.54-.91,5-1.31,7.56-.15.92-.52,1.18-1.56,1C413.53,67.66,410.75,67.17,408,66.65Z" style="fill:#050f2d;stroke:#050f2d;stroke-miterlimit:10"/><path d="M344.12,215.51a6.36,6.36,0,1,1-5.17-7.39A6.41,6.41,0,0,1,344.12,215.51Zm-5.7-3.47a2.41,2.41,0,1,0,1.76,2.86A2.42,2.42,0,0,0,338.42,212Z" style="fill:#fff"/><path d="M373,54.33c-1.87-.34-3.75-.63-5.61-1a3,3,0,1,1,1.06-5.8q5.63.93,11.22,2a3,3,0,1,1-1.06,5.8C376.76,55.06,374.89,54.67,373,54.33Z" style="fill:#fff"/><path d="M355.49,51.12a2.94,2.94,0,1,1,3.39-2.23A3,3,0,0,1,355.49,51.12Z" style="fill:#fff"/><path d="M350.55,164.23c-7.16,3.29-16.08.14-18.58-6.51a86.65,86.65,0,0,1-4.84-42.09c1.22-9.11,5.3-19.56,17-20.89A20.38,20.38,0,0,1,353.55,96c7.9,3,12.71,9.16,16.62,15.45,4.12,6.63,10.72,16,6.64,23.86C369.65,149.06,360.65,159.59,350.55,164.23Z" style="fill:#ff8375"/><polygon points="299.94 130.52 354 130.56 354.82 126.59 300.65 126.59 299.94 130.52" style="fill:#ff8375"/><path d="M363,126.9v2.67a1.59,1.59,0,0,1-1.59,1.6h-7.59a.78.78,0,0,0-.78.78v7.59a1.6,1.6,0,0,1-1.6,1.6h-2.67a1.6,1.6,0,0,1-1.6-1.6V132a.78.78,0,0,0-.78-.78h-7.59a1.6,1.6,0,0,1-1.6-1.6V126.9a1.6,1.6,0,0,1,1.6-1.59h7.59a.78.78,0,0,0,.78-.79v-7.58a1.6,1.6,0,0,1,1.6-1.6h2.67a1.6,1.6,0,0,1,1.6,1.6v7.58a.78.78,0,0,0,.78.79h7.59A1.59,1.59,0,0,1,363,126.9Z" style="fill:#0a184d"/></g></g></svg>